# xmcd
#
# Track frame offsets:
#	150
#	14964
#	31683
#	51267
#	73881
#	92010
#	109284
#	129071
#	148843
#	164992
#	190104
#	201836
#	213815
#
# Disc length: 3094 seconds
#
# Revision: 2
# Processed by: cddbd v1.5.2PL0 Copyright (c) Steve Scherf et al.
# Submitted via: audiograbber 1.83.01
#
DISCID=c40c140d
DTITLE=Matt Andersen - Something In Between
DYEAR=2008
DGENRE=Blues
TTITLE0=Come By
TTITLE1=Something in Between
TTITLE2=Working Man Blues
TTITLE3=So Gone Now
TTITLE4=Stay With Me
TTITLE5=Better Man Blues
TTITLE6=Lonesome Road
TTITLE7=Wrote a Song for Everyone
TTITLE8=Broken Man
TTITLE9=Tell Me
TTITLE10=How I Wish
TTITLE11=Baby Come Back Home
TTITLE12=Bold and Beaten
EXTD=
EXTT0=
EXTT1=
EXTT2=
EXTT3=
EXTT4=
EXTT5=
EXTT6=
EXTT7=
EXTT8=
EXTT9=
EXTT10=
EXTT11=
EXTT12=
PLAYORDER=
